<?xml version="1.0" encoding="UTF-8" standalone="no"?>
<svg
   width="680.03027"
   height="997.33972"
   version="1.1"
   id="svg10"
   sodipodi:docname="irpf_stonks_logo.svg"
   xmlns:inkscape="http://www.inkscape.org/namespaces/inkscape"
   xmlns:sodipodi="http://sodipodi.sourceforge.net/DTD/sodipodi-0.dtd"
   xmlns="http://www.w3.org/2000/svg"
   xmlns:svg="http://www.w3.org/2000/svg">
  <defs
     id="defs14" />
  <sodipodi:namedview
     id="namedview12"
     pagecolor="#ffffff"
     bordercolor="#000000"
     borderopacity="0.25"
     inkscape:showpageshadow="2"
     inkscape:pageopacity="0.0"
     inkscape:pagecheckerboard="0"
     inkscape:deskcolor="#d1d1d1"
     showgrid="false" />
  <path
     stroke="null"
     fill-rule="evenodd"
     fill="#f4f4f4"
     d="M 1.2514396,0.74970639 C -0.94455035,2.9456964 -0.00862035,636.64195 2.1914196,637.2497 c 3.99086,1.1061 26.4166704,7.86018 30.3872804,9.1567 2.2284,0.72524 11.70923,3.60191 21.06851,6.38943 9.35928,2.78753 18.84011,5.7047 21.06851,6.47857 2.2284,0.76981 9.52135,3.00226 16.20655,4.95515 6.6852,1.94884 16.16603,4.8174 21.06851,6.36512 4.90248,1.55178 14.38331,4.46896 21.06851,6.48262 6.6852,2.01366 13.97815,4.25422 16.20655,4.98351 2.2284,0.72524 11.70923,3.60191 21.06851,6.38943 9.35928,2.78753 18.84011,5.7047 21.06851,6.48262 3.38717,1.17903 19.69501,6.14228 42.94735,13.06653 2.67408,0.79817 9.23773,2.83209 14.58589,4.52568 5.34816,1.69358 15.19364,4.67964 21.87884,6.62848 6.6852,1.95289 13.97815,4.18534 16.20655,4.95515 2.2284,0.77386 11.70923,3.67889 21.06851,6.45831 9.35928,2.77942 18.6902,5.74117 20.74033,6.58796 4.69585,1.93668 16.83455,1.98935 21.72488,0.0932 2.05013,-0.79412 9.19316,-3.07114 15.87836,-5.06049 6.6852,-1.9853 13.97815,-4.2056 16.20655,-4.93489 2.2284,-0.72524 11.70923,-3.60191 21.06851,-6.38943 9.35928,-2.78753 18.84011,-5.7047 21.06851,-6.48262 2.2284,-0.77791 11.70923,-3.69509 21.06851,-6.48262 9.35928,-2.78753 18.84011,-5.66419 21.06851,-6.38943 2.2284,-0.72929 9.52135,-2.96985 16.20655,-4.98351 6.6852,-2.01366 16.16603,-4.93084 21.06851,-6.48262 4.90248,-1.54773 14.38331,-4.41628 21.06851,-6.36512 6.6852,-1.95289 13.97815,-4.18534 16.20655,-4.95515 2.2284,-0.77386 11.70923,-3.69104 21.06851,-6.47857 9.35928,-2.78753 18.84011,-5.66419 21.06851,-6.38943 2.2284,-0.72929 9.52135,-2.96985 16.20655,-4.98351 6.6852,-2.01366 16.53068,-5.03618 21.87884,-6.71356 5.34816,-1.68143 11.91181,-3.7032 14.58589,-4.50137 2.67408,-0.79817 12.51956,-3.72751 21.87884,-6.51503 9.35928,-2.78347 18.11082,-5.66014 19.44786,-6.38943 2.14737,-1.17092 2.43098,-38.27176 2.43098,-318.79899 V 0.48232639 l -338.84649,-0.40922 c -186.36719,-0.22284 -339.3367404,0.08103 -339.9323304,0.67662 M 658.15142,318.58848 v 289.74065 l -7.69811,2.2365 c -4.23396,1.22765 -11.70923,3.4763 -16.61171,4.99162 -4.90248,1.51531 -14.38331,4.36361 -21.06851,6.33271 -6.6852,1.96504 -13.97815,4.15293 -16.20655,4.85791 -5.15368,1.63686 -12.29672,3.78018 -27.55113,8.27749 -6.6852,1.9691 -16.53068,4.96731 -21.87884,6.66089 -10.50184,3.32234 -13.14351,4.12051 -31.60277,9.51324 -6.6852,1.95694 -13.97815,4.15698 -16.20655,4.89438 -2.2284,0.7374 -9.52135,2.94959 -16.20655,4.91058 -6.6852,1.96099 -15.43674,4.64723 -19.44786,5.97211 -4.01112,1.32489 -9.48083,2.99416 -12.15491,3.7032 -2.67408,0.71309 -9.96703,2.87666 -16.20655,4.80524 -6.23952,1.92858 -13.53247,4.11646 -16.20655,4.86196 -2.67408,0.7455 -9.96703,2.93339 -16.20655,4.86196 -6.23952,1.92858 -13.53247,4.11646 -16.20655,4.86196 -2.67408,0.7455 -9.96703,2.91718 -16.20655,4.82955 -28.62887,8.76774 -24.85274,8.76774 -53.48161,0 -6.23952,-1.91237 -13.53247,-4.08405 -16.20655,-4.82955 -2.67408,-0.7455 -9.96703,-2.93339 -16.20655,-4.86196 -6.23952,-1.92858 -13.53247,-4.09215 -16.20655,-4.80524 -2.67408,-0.70904 -8.50844,-2.4796 -12.96524,-3.93009 -9.35118,-3.04278 -13.30152,-4.24206 -29.98211,-9.11618 -6.6852,-1.95694 -13.97815,-4.15698 -16.20655,-4.89438 -2.2284,-0.7374 -9.52135,-2.94149 -16.20655,-4.89438 -6.6852,-1.94884 -16.16603,-4.82955 -21.06851,-6.39348 -4.90248,-1.56393 -14.38331,-4.44465 -21.06851,-6.39348 -6.6852,-1.95289 -13.97815,-4.12862 -16.20655,-4.8336 -5.60747,-1.77867 -13.31368,-4.08405 -27.55113,-8.24508 -6.6852,-1.95694 -13.97815,-4.15698 -16.20655,-4.89438 -2.2284,-0.7374 -9.52135,-2.94149 -16.20655,-4.89438 -6.6852,-1.94884 -16.16603,-4.84171 -21.06851,-6.42184 -4.90248,-1.58014 -12.37775,-3.8369 -16.61171,-5.01593 l -7.69811,-2.14737 V 318.58846 28.843756 H 343.74436 658.15138 V 318.58846 M 184.9202,831.06784 v 55.10226 h 12.15491 12.15491 V 831.06784 775.96558 H 197.07511 184.9202 v 55.10226 m 46.99899,0 v 55.10226 h 12.96524 12.96524 v -21.87884 c 0,-30.43995 0.68067,-30.24952 21.79781,6.07746 l 9.18506,15.80138 h 13.67833 c 7.52794,0 13.68238,-0.44568 13.68238,-0.98455 0,-0.54292 -5.46971,-10.06427 -12.15491,-21.15765 -13.36635,-22.17866 -13.97004,-24.05052 -8.22887,-25.4929 20.61473,-5.16989 26.93123,-35.14795 10.79356,-51.21269 -10.12099,-10.08047 -15.49346,-11.35674 -47.72423,-11.35674 h -26.95959 v 55.10226 m 105.34256,0 v 55.10226 h 12.15491 12.15491 l 0.0243,-19.85302 c 0.0324,-24.38275 -0.81033,-23.21588 17.62867,-24.38275 33.80281,-2.13521 50.66167,-24.03836 37.23049,-48.36439 -8.01009,-14.51296 -17.23566,-17.5841 -52.85765,-17.59626 l -26.33564,-0.008 v 55.10226 m 98.85994,0 v 55.10226 h 12.92067 12.92067 l 0.44973,-23.09433 0.44973,-23.09433 16.20655,-0.81033 16.20655,-0.81033 0.49025,-8.50844 0.49025,-8.50844 -15.07614,-0.0243 c -19.45191,-0.0324 -19.38708,0.0162 -18.79959,-14.70339 l 0.48214,-12.0131 22.284,-0.44973 22.284,-0.45378 v -8.86498 -8.86903 h -35.6544 -35.6544 v 55.10226 M 284.91463,796.22781 c 16.70895,11.70113 -1.04127,33.20722 -22.87959,27.72535 -4.13672,-1.03722 -6.74192,-25.44428 -3.10355,-29.0786 2.17978,-2.17978 22.44607,-1.1223 25.98315,1.35325 m 105.95435,2.30133 c 11.89155,11.89155 2.33779,26.05608 -17.576,26.05608 -10.33978,0 -11.72139,-1.73815 -11.72139,-14.77632 0,-15.93914 0.0648,-16.01612 13.26506,-16.01612 10.32357,0 11.70113,0.40922 16.03233,4.73636"
     id="svg_7"
     style="fill:#041424;fill-opacity:1" />
  <path
     stroke="null"
     fill-rule="evenodd"
     fill="#0473d9"
     d="m 298.14061,71.570116 c -26.15932,2.15755 -65.59281,13.89977 -86.17377,25.65803 -1.66428,0.95045 -5.6345,3.184194 -8.82271,4.960774 -3.18821,1.77657 -6.07163,3.48898 -6.40849,3.80178 -0.33687,0.31682 6.70125,0.13234 15.64025,-0.41306 20.07166,-1.22315 20.23608,-0.13234 1.40762,9.44832 -45.05595,22.93101 -86.13768,62.62517 -102.58802,99.12711 -1.39158,3.08795 -4.31912,9.58467 -6.50875,14.43715 -8.10887,17.98228 -14.17648,47.90729 -13.59499,67.01647 0.36093,11.81842 0.95045,16.02524 1.88485,13.43858 12.37986,-34.26418 46.53576,-78.96723 76.30036,-99.861 19.17735,-13.46265 19.62651,-12.3959 3.10399,7.37498 -74.90477,89.61864 -71.58824,215.91567 7.93241,302.37819 12.83704,13.95993 14.6096,14.10831 8.17303,0.69379 -9.21973,-19.20543 -13.52681,-41.9279 -11.91867,-62.85376 1.38356,-17.97827 2.75108,-17.46094 9.5606,3.60929 5.23748,16.20571 21.76401,40.53231 33.75086,49.67183 7.58753,5.7909 8.11288,4.72817 4.09454,-8.26527 -7.8883,-25.51366 -11.40936,-82.90135 -6.61703,-107.85357 2.67889,-13.93988 2.51046,-14.06821 9.4403,7.09426 11.43743,34.91786 22.63024,51.66095 56.03621,83.84779 36.50194,35.16249 42.93449,46.88867 41.75947,76.13193 -0.74993,18.6119 -1.92094,18.05045 19.75885,9.45233 17.09199,-6.77744 34.74141,-17.73364 42.75804,-26.54431 2.87139,-3.15211 6.0235,-5.73476 7.00202,-5.73476 2.39817,0 0.87024,17.84593 -2.29791,26.86915 -2.75108,7.83216 -2.59067,7.96049 4.57578,3.52908 40.71278,-25.16075 35.06223,-85.15916 -10.42683,-110.72496 -3.60127,-2.02521 -6.54484,-4.26698 -6.54484,-4.98884 0,-1.76053 4.39932,-1.6723 5.50216,0.1163 0.48525,0.78201 3.27643,1.87282 6.21199,2.42223 28.10834,5.27357 59.83399,40.71278 64.40174,71.94917 l 1.93297,13.23406 6.29219,-12.03096 c 9.38415,-17.94619 9.49644,-42.03217 0.26468,-57.22728 -5.34977,-8.81067 -19.18136,-22.94305 -22.48186,-22.96711 -0.67774,-0.008 -3.96621,-1.82069 -7.30279,-4.02636 -3.33659,-2.20969 -15.87686,-8.27329 -27.86772,-13.47869 -48.80961,-21.18652 -65.93769,-41.81963 -66.04196,-79.55674 -0.0481,-17.5251 0.83816,-22.25327 7.31081,-38.90011 4.4675,-11.48155 5.12118,-10.81584 7.30279,7.41909 3.44888,28.85426 16.43429,55.81163 18.41539,38.2344 1.23919,-10.98427 9.26785,-25.08857 9.26785,-16.27789 0,6.24006 5.99142,19.71875 12.7047,28.58156 13.31828,17.58526 25.38533,25.67006 69.90791,46.84055 31.15618,14.81011 48.86576,31.30857 48.94597,45.58933 0.0561,10.23033 1.82069,10.36668 12.22346,0.95045 18.19483,-16.46237 25.0244,-38.12612 18.37128,-58.28199 -2.00115,-6.06762 -1.89287,-7.25868 1.2432,-13.93586 6.67317,-14.19654 7.27472,-14.04815 -19.76687,-4.92066 -35.57556,12.0069 -49.05424,11.25697 -55.57102,-3.09597 -5.10514,-11.24093 -4.48354,-12.13924 5.97137,-8.61016 12.93729,4.36724 61.61457,-4.16672 77.69997,-13.62306 6.6451,-3.90605 7.53539,-4.06647 9.8293,-1.76855 2.29791,2.2939 2.90347,2.02521 6.72932,-2.9917 4.94072,-6.47266 5.45003,-9.8293 1.29934,-8.51391 -1.85678,0.58952 -4.74822,-0.72186 -8.02064,-3.64538 -2.81525,-2.51447 -8.10486,-5.55429 -11.75826,-6.7614 -10.1822,-3.36065 -17.81384,-19.25756 -8.59412,-17.89806 5.61846,0.82613 36.29741,0.65769 37.16364,-0.20453 1.36752,-1.37153 -12.60845,-20.16389 -40.00696,-53.79845 -5.5583,-6.82156 -7.51534,-11.60587 -12.27158,-30.00923 -4.38328,-16.95163 -27.85569,-43.1711 -54.46417,-60.83256 -16.11347,-10.69553 -19.44605,-14.56147 -11.02838,-12.79693 8.76656,1.83673 25.73423,7.46321 32.0184,10.61532 8.24923,4.13865 8.18908,4.20282 6.94588,-7.383 -4.63192,-43.27537 -48.32838,-87.565354 -92.19727,-93.448494 -7.94044,-1.06675 -7.99658,-0.64566 -0.90633,6.44459 8.24923,8.24923 6.43255,9.73305 -6.41651,5.25753 -17.58526,-6.12376 -38.6234,-10.45892 -58.47048,-12.03898 -23.50048,-1.87282 -22.4578,-1.87683 -46.06655,0.0682 m 68.68075,71.090964 c 11.90664,3.6133 17.50505,7.13436 29.03873,18.25899 14.48127,13.97196 14.44117,14.04414 -8.02064,13.98399 -19.45808,-0.0521 -29.31143,1.73246 -21.2547,3.84991 2.20568,0.5815 4.01032,2.05328 4.01032,3.27242 0,1.22315 -1.80464,2.70296 -4.01032,3.29648 -9.31196,2.49843 -28.87431,14.56147 -28.87431,17.80181 0,0.79404 4.96879,0.96248 11.2289,0.38098 25.13669,-2.33401 2.04927,24.77175 -28.76603,33.77091 -15.98113,4.664 -21.61162,3.50903 -16.22977,-3.33258 4.53968,-5.77085 7.67174,-18.16274 9.6769,-38.23841 4.47953,-44.95971 22.0688,-62.49283 53.20092,-53.04451 m 111.59119,94.35082 c 1.82069,1.98511 4.91665,6.85765 6.88171,10.82787 3.13206,6.32829 17.41281,24.66347 21.40308,27.48674 0.79404,0.55743 1.167,1.83673 0.83415,2.84332 -0.9344,2.80321 -16.11748,-5.4019 -25.3332,-13.68722 -7.25066,-6.51677 -8.80666,-7.20655 -17.27646,-7.63164 -13.80753,-0.70181 -31.77377,-13.47067 -25.69814,-18.26701 7.84419,-6.19194 33.99549,-7.23863 39.18885,-1.57205 M 164.43652,954.08538"
     id="svg_5" />
  <path
     stroke="null"
     fill-rule="evenodd"
     fill="#0c93e3"
     d="m 147.51787,933.00621 c -10.08985,4.86237 -11.14243,23.72078 -1.60436,28.72626 10.21041,5.3565 11.98634,6.0537 15.41763,6.0537 4.55342,0 11.47628,7.5637 11.47628,12.5415 0,8.9536 -13.73444,11.1562 -20.31881,3.2601 -3.92744,-4.7146 -13.46087,-3.8003 -12.73288,1.219 1.58118,10.9115 23.9634,16.34653 36.34388,8.829 16.09462,-9.771 9.4546,-32.6698 -9.60762,-33.15 -5.04493,-0.1247 -15.9416,-8.89359 -15.9416,-12.8232 0,-8.20553 12.87198,-12.5184 17.124,-5.7351 2.77749,4.42831 16.26154,5.40263 16.26154,1.1775 0,-9.794 -23.52754,-16.3141 -36.41807,-10.09876 m 53.11084,1.53305 c 0,3.14461 1.23805,3.69411 8.28147,3.69411 11.32326,0 12.12081,2.17952 12.12081,33.1269 v 25.9788 h 5.51789 5.51789 l 0.51006,-29.0911 0.51006,-29.09108 8.81007,-0.56335 c 7.29845,-0.46638 8.81007,-1.1775 8.81007,-4.15587 0,-3.38011 -1.46989,-3.59252 -25.03916,-3.59252 -23.80111,0 -25.03916,0.18471 -25.03916,3.69411 m 80.68174,-1.27447 c -30.38548,18.02262 -18.46406,64.38828 16.45629,63.98658 33.24644,-0.3879 45.25133,-48.82689 15.73294,-63.49249 -6.91823,-3.43552 -26.71771,-3.74028 -32.18923,-0.49409 m 65.84372,30.82728 v 33.247 h 5.50398 5.50398 l 0.52397,-20.627 c 0.7419,-29.19264 2.88414,-28.92482 22.76245,2.863 10.8503,17.3438 11.2769,17.764 18.08384,17.764 h 6.97387 v -33.247 -33.24693 h -6.49163 -6.49163 v 21.24111 c 0,11.68262 -0.67698,21.24112 -1.50235,21.24112 -3.19017,0 -7.66477,-5.0794 -14.63863,-16.62349 -15.43154,-25.54936 -15.66802,-25.81257 -23.27251,-25.83566 l -6.95532,-0.0231 v 33.24695 m 77.89961,0 v 33.247 h 6.49163 6.49163 v -13.7421 c 0,-20.6824 2.74967,-20.5161 18.91384,1.1313 8.8008,11.7888 9.88583,12.6108 16.58149,12.6108 9.12075,0 9.21812,0.3602 -4.11291,-15.3444 -16.37747,-19.2925 -16.27545,-16.9098 -1.46989,-34.65535 l 12.99254,-15.57066 -5.86566,-0.59106 c -8.55968,-0.8635 -9.77455,-0.0139 -20.51356,14.3239 -13.30785,17.76407 -16.52585,17.60707 -16.52585,-0.80347 v -13.8529 h -6.49163 -6.49163 v 33.24694 m 82.2861,-31.08588 c -10.08985,4.86237 -11.14243,23.72078 -1.60436,28.72628 10.21041,5.3565 11.98634,6.0537 15.41763,6.0537 4.55342,0 11.47628,7.5637 11.47628,12.5415 0,8.9536 -13.73444,11.1562 -20.31881,3.2601 -3.92744,-4.7146 -13.46087,-3.8003 -12.73288,1.219 1.58118,10.9115 23.9634,16.34653 36.34388,8.8289 16.09462,-9.7709 9.4546,-32.6697 -9.60762,-33.1499 -5.04493,-0.1247 -15.9416,-8.89361 -15.9416,-12.82322 0,-8.20553 12.87198,-12.5184 17.124,-5.7351 2.77749,4.42831 16.26154,5.40263 16.26154,1.1775 0,-9.794 -23.52754,-16.3141 -36.41807,-10.09876 m -194.96232,14.67484 c 9.52415,10.0572 6.487,30.43484 -5.4437,36.51164 -20.88451,10.639 -40.36869,-16.7112 -25.62341,-35.96676 7.30309,-9.53541 22.3034,-9.79862 31.06711,-0.54488"
     id="svg_4" />
</svg>
