<?xml version="1.0" encoding="utf-8"?>
<svg
   width="456"
   height="456"
   viewBox="0 0 456 456"
   version="1.1"
   xmlns="http://www.w3.org/2000/svg"
   xmlns:svg="http://www.w3.org/2000/svg">
  <path
     fill="#f4f4f4"
     d="m 86.508161,10.013831 c -0.961689,0.961697 -0.551814,278.478459 0.411661,278.744609 1.747735,0.48439 11.568738,3.44224 13.307608,4.01002 0.97589,0.3176 5.12786,1.57739 9.2266,2.79814 4.09875,1.22075 8.25071,2.49828 9.2266,2.83718 0.97589,0.33712 4.16972,1.3148 7.09739,2.17003 2.92767,0.85345 7.07965,2.1097 9.22661,2.7875 2.14696,0.67957 6.29893,1.9571 9.22661,2.83896 2.92767,0.88185 6.12149,1.86305 7.09738,2.18244 0.9759,0.3176 5.12787,1.5774 9.22661,2.79815 4.09874,1.22075 8.25072,2.49828 9.22661,2.83896 1.48336,0.51632 8.62509,2.68991 18.80807,5.72226 1.17107,0.34955 4.04551,1.24026 6.38765,1.98193 2.34213,0.7417 6.6538,2.04939 9.58147,2.90284 2.92767,0.85523 6.12151,1.83291 7.0974,2.17003 0.97589,0.3389 5.12786,1.61112 9.2266,2.82831 4.09875,1.21721 8.18506,2.51425 9.08288,2.88509 2.05647,0.84814 7.37242,0.8712 9.51405,0.0407 0.89782,-0.34778 4.02599,-1.34496 6.95366,-2.21616 2.92767,-0.86944 6.1215,-1.84178 7.09739,-2.16116 0.97589,-0.3176 5.12786,-1.57739 9.2266,-2.79814 4.09874,-1.22075 8.25072,-2.49828 9.22661,-2.83896 0.97589,-0.34067 5.12787,-1.6182 9.22661,-2.83895 4.09874,-1.22076 8.25072,-2.48054 9.22661,-2.79816 0.97589,-0.31937 4.16971,-1.30058 7.09739,-2.18244 2.92767,-0.88184 7.07962,-2.15937 9.2266,-2.83895 2.14695,-0.67781 6.29892,-1.93403 9.22659,-2.7875 2.92767,-0.85524 6.12151,-1.83289 7.0974,-2.17002 0.97589,-0.33891 5.12785,-1.61644 9.22659,-2.83719 4.09876,-1.22075 8.25072,-2.48054 9.22661,-2.79814 0.97589,-0.31938 4.16972,-1.3006 7.09739,-2.18245 2.92767,-0.88185 7.23934,-2.20551 9.58148,-2.94009 2.34214,-0.73635 5.21659,-1.62176 6.38765,-1.9713 1.17107,-0.34954 5.48273,-1.6324 9.58146,-2.85315 4.09874,-1.21898 7.93134,-2.47877 8.51687,-2.79815 0.9404,-0.51278 1.06461,-16.76047 1.06461,-139.61272 V 9.8967361 L 235.3759,9.717525 C 153.75948,9.6199404 86.768996,9.7530153 86.508161,10.013839 M 374.1866,149.20605 v 126.8871 l -3.37125,0.97944 c -1.8542,0.53762 -5.12785,1.52239 -7.27481,2.18599 -2.14697,0.66361 -6.29894,1.91097 -9.22661,2.7733 -2.92767,0.86057 -6.12151,1.81871 -7.09739,2.12745 -2.25697,0.71684 -5.38516,1.65547 -12.06557,3.62499 -2.92767,0.86233 -7.23933,2.17535 -9.58147,2.91702 -4.59911,1.45497 -5.75598,1.80451 -13.83991,4.16617 -2.92767,0.85701 -6.1215,1.82049 -7.09738,2.14342 -0.97589,0.32293 -4.16972,1.29172 -7.0974,2.1505 -2.92767,0.85879 -6.76026,2.03517 -8.51686,2.61539 -1.7566,0.5802 -4.15197,1.31124 -5.32304,1.62176 -1.17107,0.31227 -4.3649,1.25978 -7.0974,2.10437 -2.73248,0.84459 -5.92632,1.80273 -7.09738,2.12922 -1.17107,0.32647 -4.36489,1.28463 -7.09739,2.12921 -2.7325,0.84459 -5.92632,1.80273 -7.09739,2.12922 -1.17107,0.32647 -4.3649,1.27753 -7.09739,2.11501 -12.53754,3.8397 -10.88385,3.8397 -23.42138,0 -2.73249,-0.83748 -5.92632,-1.78854 -7.09739,-2.11501 -1.17107,-0.32649 -4.36489,-1.28463 -7.09739,-2.12922 -2.7325,-0.8446 -5.92632,-1.79209 -7.09739,-2.10438 -1.17106,-0.31052 -3.72613,-1.08589 -5.67792,-1.72112 -4.09518,-1.33253 -5.82517,-1.85774 -13.13016,-3.99227 -2.92767,-0.85702 -6.1215,-1.82049 -7.0974,-2.14342 -0.97589,-0.32293 -4.16971,-1.28818 -7.09738,-2.14341 -2.92768,-0.85346 -7.07963,-2.11503 -9.22661,-2.79992 -2.14696,-0.68489 -6.29891,-1.94647 -9.22659,-2.79992 -2.92767,-0.85523 -6.12151,-1.80807 -7.0974,-2.1168 -2.45569,-0.77894 -5.8305,-1.78854 -12.06555,-3.61079 -2.92768,-0.857 -6.1215,-1.82048 -7.09739,-2.14341 -0.97589,-0.32293 -4.16973,-1.28818 -7.0974,-2.14342 -2.92766,-0.85345 -7.07964,-2.12034 -9.2266,-2.81233 -2.14695,-0.692 -5.42062,-1.68031 -7.27482,-2.19664 l -3.371261,-0.9404 V 149.20604 22.317154 H 236.49726 374.18659 V 149.20604 M 166.94286,373.63787 v 24.13111 h 5.32304 5.32303 v -24.13111 -24.13112 h -5.32303 -5.32304 v 24.13112 m 20.58242,0 v 24.13111 h 5.67792 5.67791 v -9.58146 c 0,-13.33068 0.29808,-13.24729 9.54598,2.66151 l 4.02246,6.91995 h 5.99018 c 3.29675,0 5.99198,-0.19517 5.99198,-0.43116 0,-0.23777 -2.39537,-4.40748 -5.32304,-9.26564 -5.85357,-9.71278 -6.11794,-10.53253 -3.6037,-11.1642 9.02788,-2.26407 11.79409,-15.39246 4.72686,-22.42775 -4.43232,-4.41458 -6.7851,-4.97348 -20.90003,-4.97348 h -11.80651 v 24.13112 m 46.13302,0 v 24.13111 h 5.32304 5.32305 l 0.0109,-8.6943 c 0.0143,-10.67801 -0.35486,-10.167 7.72019,-10.67801 14.80338,-0.93509 22.18643,-10.52722 16.30447,-21.18039 -3.50787,-6.3557 -7.54807,-7.70065 -23.14813,-7.70599 l -11.53325,-0.004 v 24.13112 m 43.29407,0 v 24.13112 h 5.65839 5.6584 l 0.19695,-10.11378 0.19694,-10.11378 7.0974,-0.35487 7.09739,-0.35487 0.21469,-3.72612 0.2147,-3.72614 -6.60235,-0.0109 c -8.51863,-0.0143 -8.49024,0.007 -8.23297,-6.4391 l 0.21115,-5.26094 9.75891,-0.19695 9.7589,-0.19873 v -3.88227 -3.88405 H 292.56646 276.9522 v 24.13112 m -66.21862,-15.25766 c 7.31739,5.12432 -0.45601,14.54256 -10.01974,12.14187 -1.8116,-0.45424 -2.95251,-11.1429 -1.35914,-12.7345 0.95459,-0.9546 9.82988,-0.49149 11.37888,0.59263 m 46.40095,1.00783 c 5.20771,5.20772 1.0238,11.41083 -7.69713,11.41083 -4.52813,0 -5.13318,-0.76119 -5.13318,-6.47104 0,-6.98029 0.0283,-7.01399 5.80922,-7.01399 4.52103,0 5.12431,0.17921 7.02109,2.0742" />
  <path
     fill="#0473d9"
     d="m 216.52586,41.028453 c -11.45604,0.944863 -28.72529,6.087174 -37.73837,11.236508 -0.72885,0.416235 -2.46754,1.394464 -3.86376,2.172487 -1.39623,0.77802 -2.65897,1.52794 -2.8065,1.664926 -0.14752,0.138747 2.93471,0.05796 6.8494,-0.180892 8.79005,-0.535658 8.86204,-0.05796 0.61644,4.137735 -19.73151,10.042258 -37.72257,27.425661 -44.92672,43.411073 -0.60941,1.35232 -1.89149,4.19745 -2.85041,6.32251 -3.55114,7.87505 -6.20835,20.9802 -5.95368,29.34876 0.15804,5.17567 0.41622,7.01799 0.82542,5.88519 5.42156,-15.00542 20.37957,-34.58238 33.41448,-43.73246 8.39841,-5.895747 8.5951,-5.42858 1.35934,3.22974 -32.80329,39.24701 -31.35088,94.55669 3.47388,132.42151 5.62176,6.11352 6.39802,6.1785 3.57923,0.30384 -4.03762,-8.4107 -5.92384,-18.36164 -5.21957,-27.52576 0.6059,-7.87328 1.20478,-7.64674 4.1869,1.58062 2.29366,7.09702 9.53118,17.75046 14.78062,21.75296 3.32284,2.53602 3.5529,2.07062 1.79314,-3.61964 -3.45455,-11.17329 -4.99654,-36.30527 -2.89782,-47.23268 1.17317,-6.10474 1.09941,-6.16094 4.13423,3.10681 5.00883,15.2917 9.91053,22.62405 24.54012,36.71975 15.98542,15.39883 18.80245,20.53411 18.28786,33.34072 -0.32841,8.15076 -0.84124,7.90488 8.65306,4.13949 7.48516,-2.96808 15.21443,-7.76615 18.72519,-11.62464 1.25747,-1.38043 2.63788,-2.51145 3.06641,-2.51145 1.05024,0 0.3811,7.81533 -1.00633,11.76691 -1.20479,3.42995 -1.13455,3.48614 2.00388,1.54549 17.8295,-11.01873 15.35493,-37.29403 -4.56626,-48.49015 -1.57711,-0.88691 -2.8662,-1.86866 -2.8662,-2.18477 0,-0.77101 1.9266,-0.73237 2.40958,0.051 0.21251,0.34247 1.43487,0.82018 2.72045,1.06077 12.30957,2.30948 26.20329,17.82949 28.20366,31.50895 l 0.84652,5.79563 2.75555,-5.26875 c 4.10964,-7.85924 4.15881,-18.40729 0.11594,-25.06174 -2.34284,-3.85849 -8.40015,-10.04752 -9.84556,-10.05807 -0.2968,-0.004 -1.73693,-0.79733 -3.19813,-1.76327 -1.4612,-0.9677 -6.95301,-3.62314 -12.2042,-5.90278 -21.37536,-9.27828 -28.87633,-18.3142 -28.92198,-34.84055 -0.021,-7.67481 0.36706,-9.74543 3.20164,-17.03565 1.95648,-5.02815 2.24274,-4.73662 3.19813,3.24906 1.51039,12.63625 7.19713,24.44178 8.06472,16.74412 0.54268,-4.81037 4.05871,-10.98712 4.05871,-7.12862 0,2.73273 2.62383,8.63549 5.56381,12.51682 5.83252,7.70117 11.11708,11.24177 30.61501,20.51303 13.64432,6.48585 21.39994,13.71107 21.43507,19.96509 0.0246,4.4802 0.79734,4.53992 5.35305,0.41624 7.96813,-7.20942 10.95902,-16.6967 8.0454,-25.52363 -0.87636,-2.65721 -0.82895,-3.17882 0.54445,-6.10298 2.9224,-6.21714 3.18583,-6.15215 -8.65657,-2.15492 -15.57974,5.25822 -21.4825,4.9298 -24.33641,-1.35583 -2.23572,-4.92278 -1.9635,-5.31618 2.61506,-3.77068 5.66568,1.91257 26.98308,-1.82475 34.02741,-5.96599 2.91012,-1.71058 3.3,-1.78084 4.30458,-0.77451 1.00633,1.00459 1.27153,0.8869 2.94699,-1.31016 2.16371,-2.8346 2.38676,-4.30457 0.56903,-3.72852 -0.81315,0.25816 -2.07941,-0.31613 -3.51251,-1.59644 -1.23289,-1.10118 -3.54939,-2.43242 -5.14932,-2.96103 -4.45913,-1.47174 -7.80128,-8.43353 -3.76366,-7.83817 2.4605,0.3618 15.89584,0.28802 16.2752,-0.0895 0.59887,-0.60064 -5.52167,-8.83044 -17.52039,-23.56014 -2.43417,-2.98738 -3.29121,-5.08259 -5.37414,-13.14204 -1.91957,-7.42369 -12.19893,-18.906075 -23.85167,-26.640611 -7.05662,-4.683932 -8.51608,-6.376956 -4.82969,-5.604207 3.83915,0.804363 11.26987,3.268394 14.02192,4.648812 3.61261,1.812453 3.58628,1.84056 3.04183,-3.233263 -2.02847,-18.951735 -21.16462,-38.347797 -40.37625,-40.92422 -3.47738,-0.467165 -3.50197,-0.282756 -0.39692,2.822301 3.6126,3.612614 2.81703,4.262428 -2.81,2.302448 -7.70118,-2.681798 -16.91447,-4.58031 -25.60618,-5.272271 -10.29164,-0.82017 -9.83502,-0.821926 -20.17409,0.02987 m 30.0776,31.133095 c 5.21432,1.582394 7.66605,3.124385 12.71703,7.996233 6.34184,6.118777 6.32427,6.150401 -3.5125,6.124048 -8.52135,-0.02287 -12.83646,0.758701 -9.30814,1.68601 0.96592,0.254661 1.75625,0.899203 1.75625,1.433093 0,0.535664 -0.79033,1.183724 -1.75625,1.443655 -4.07803,1.094144 -12.64504,6.376934 -12.64504,7.796 0,0.347737 2.17601,0.421505 4.91751,0.166834 11.0082,-1.022129 0.89745,10.848393 -12.59759,14.789413 -6.99867,2.04253 -9.46446,1.53673 -7.10757,-1.45945 1.98808,-2.52724 3.35972,-7.95406 4.23784,-16.745872 1.96174,-19.689355 9.66467,-27.3677 23.29846,-23.229964 m 48.8695,41.319376 c 0.79734,0.86935 2.15317,3.0032 3.01374,4.7419 1.37164,2.77136 7.62564,10.80095 9.37313,12.03736 0.34772,0.24411 0.51106,0.80435 0.36529,1.24518 -0.4092,1.22762 -7.05838,-2.36568 -11.09425,-5.9941 -3.1753,-2.85391 -3.85672,-3.15598 -7.56594,-3.34214 -6.04677,-0.30735 -13.91479,-5.89926 -11.25408,-7.99974 3.43524,-2.71166 14.88776,-3.17004 17.16211,-0.68845 M 157.97236,427.51135" />
  <path
     fill="#0c93e3"
     d="m 150.56313,418.28008 c -4.41868,2.1294 -4.87964,10.38813 -0.70259,12.5802 4.47146,2.34578 5.24921,2.65112 6.75189,2.65112 1.99409,0 5.02583,3.31238 5.02583,5.49233 0,3.92108 -6.01475,4.88568 -8.89828,1.4277 -1.71995,-2.06467 -5.89496,-1.66427 -5.57614,0.53385 0.69245,4.77851 10.49437,7.15867 15.91619,3.86652 7.04837,-4.27906 4.14048,-14.30721 -4.2075,-14.5175 -2.20935,-0.0547 -6.98136,-3.89481 -6.98136,-5.61572 0,-3.59347 5.63707,-5.48222 7.49917,-2.51159 1.21636,1.9393 7.12147,2.36599 7.12147,0.51568 0,-4.28912 -10.30348,-7.14449 -15.94869,-4.42259 m 23.25902,0.67138 c 0,1.37713 0.54218,1.61777 3.62673,1.61777 4.95883,0 5.3081,0.95448 5.3081,14.50737 v 11.37699 h 2.41647 2.41646 l 0.22339,-12.73997 0.22337,-12.73995 3.85821,-0.24671 c 3.19625,-0.20425 3.85823,-0.51566 3.85823,-1.82 0,-1.48026 -0.64371,-1.57329 -10.96548,-1.57329 -10.4233,0 -10.96548,0.0809 -10.96548,1.61779 m 35.33322,-0.55813 c -13.30682,7.8927 -8.08603,28.19776 7.20676,28.02185 14.55973,-0.16988 19.81707,-21.38292 6.88999,-27.80548 -3.02973,-1.50453 -11.70058,-1.63799 -14.09675,-0.21637 m 28.83516,13.50028 v 14.55998 h 2.41038 2.41039 l 0.22945,-9.03326 c 0.32491,-12.78442 1.26306,-12.66714 9.96844,1.25382 4.75171,7.59542 4.93854,7.77944 7.91952,7.77944 h 3.05408 v -14.55998 -14.55994 h -2.84289 -2.84291 v 9.3022 c 0,5.11621 -0.29646,9.30219 -0.65793,9.30219 -1.39707,0 -3.35665,-2.22444 -6.41073,-7.27998 -6.758,-11.18892 -6.86156,-11.30419 -10.19182,-11.3143 l -3.04596,-0.0109 v 14.55995 m 34.11484,0 v 14.55997 h 2.84289 2.8429 v -6.01811 c 0,-9.05752 1.20418,-8.98469 8.28301,0.49542 3.85416,5.16272 4.32934,5.52269 7.26158,5.52269 3.99429,0 4.03693,0.15774 -1.80117,-6.71982 -7.17225,-8.44882 -7.12756,-7.40536 -0.64371,-15.17674 l 5.68987,-6.81891 -2.56877,-0.25884 c -3.74857,-0.37816 -4.28061,-0.007 -8.98358,6.27291 -5.82795,7.77948 -7.23723,7.71073 -7.23723,-0.35187 v -6.06664 h -2.8429 -2.84289 v 14.55994 m 36.03583,-13.61354 c -4.41868,2.12939 -4.87964,10.38811 -0.70261,12.5802 4.47148,2.34579 5.24923,2.65111 6.7519,2.65111 1.9941,0 5.02584,3.3124 5.02584,5.49235 0,3.92108 -6.01478,4.88567 -8.89828,1.4277 -1.71995,-2.06468 -5.89496,-1.66428 -5.57616,0.53384 0.69246,4.7785 10.49438,7.15867 15.9162,3.86647 7.04838,-4.279 4.14049,-14.30715 -4.20749,-14.51745 -2.20935,-0.0547 -6.98136,-3.8948 -6.98136,-5.61571 0,-3.59348 5.63707,-5.48224 7.49917,-2.5116 1.21636,1.93931 7.12147,2.366 7.12147,0.51568 0,-4.28914 -10.3035,-7.1445 -15.94869,-4.42259 m -85.38051,6.4266 c 4.17094,4.40438 2.84089,13.32843 -2.38397,15.98967 -9.14602,4.65916 -17.6788,-7.31839 -11.22136,-15.75105 3.19828,-4.17588 9.76742,-4.29114 13.60533,-0.23862" />
</svg>
